<svg width="311" height="357" viewBox="0 0 311 357" fill="none" xmlns="http://www.w3.org/2000/svg">
<mask id="mask0_8_7" style="mask-type:alpha" maskUnits="userSpaceOnUse" x="1" y="1" width="308" height="354">
<path d="M300.36 51.6809L76.6708 2.16143C71.2785 0.967706 65.9395 4.37132 64.7458 9.76362L2.16566 292.451C0.971934 297.843 4.37555 303.182 9.76785 304.376L233.457 353.895C238.849 355.089 244.189 351.685 245.382 346.293L307.962 63.606C309.156 58.2137 305.752 52.8746 300.36 51.6809Z" fill="#EBEDFF"/>
</mask>
<g mask="url(#mask0_8_7)">
<path d="M0 0.238647H310V356.239H0V0.238647Z" fill="#FEFEFE"/>
<g filter="url(#filter0_f_8_7)">
<path d="M217.294 261.384L214.429 260.713L218.187 244.673C234.218 238.155 247.142 224.263 251.437 205.931C260.43 167.549 227.21 131.363 188.203 137.936C191.532 131.464 190.717 124.626 186.501 119.407L186.052 108.425L197.277 114.681L202.646 91.7659L189.81 92.3845L196.066 81.1596L173.152 75.7908L173.77 88.6263L162.545 82.3705L157.176 105.285L170.012 104.667L164.732 114.307C159.209 117.243 154.868 122.874 154.976 130.151C122.948 106.935 77.1124 124.598 68.1197 162.98C63.8246 181.312 69.2324 199.5 80.6994 212.46L76.9413 228.5L74.0769 227.829C69.494 226.755 64.5444 229.826 63.4706 234.409C62.3969 238.992 65.4674 243.941 70.0503 245.015L213.267 278.57C217.85 279.644 222.799 276.573 223.873 271.991C224.947 267.408 221.876 262.458 217.294 261.384ZM101.198 228.14C97.761 227.335 96.0064 224.507 96.8117 221.07C97.617 217.632 100.445 215.878 103.882 216.683C107.32 217.488 109.074 220.317 108.269 223.754C107.464 227.191 104.062 228.812 101.198 228.14ZM124.113 233.509C120.675 232.704 118.921 229.876 119.726 226.438C120.531 223.001 123.36 221.247 126.797 222.052C130.234 222.857 131.989 225.686 131.184 229.123C130.378 232.56 126.977 234.18 124.113 233.509ZM135.21 211.937L85.9437 200.394C79.2298 190.36 76.6242 178.268 79.577 165.665C87.0934 133.584 125.724 120.88 150.439 141.778C151.012 141.913 150.878 142.486 151.451 142.62L135.21 211.937ZM181.253 92.7969C184.691 93.6022 186.445 96.4306 185.64 99.8678C184.835 103.305 182.006 105.06 178.569 104.254C175.132 103.449 173.377 100.621 174.183 97.1834C174.988 93.7462 177.816 91.9916 181.253 92.7969ZM169.845 141.491C173.282 142.296 175.037 145.124 174.231 148.561C173.426 151.999 170.598 153.753 167.16 152.948C163.723 152.143 161.969 149.314 162.774 145.877C163.579 142.44 166.408 140.685 169.845 141.491ZM160.449 181.591C163.887 182.397 165.641 185.225 164.836 188.662C164.03 192.099 161.202 193.854 157.765 193.049C154.328 192.243 152.573 189.415 153.378 185.978C154.184 182.541 157.012 180.786 160.449 181.591ZM147.027 238.878C143.59 238.073 141.836 235.244 142.641 231.807C143.446 228.37 146.275 226.615 149.712 227.421C153.149 228.226 154.904 231.054 154.098 234.492C153.293 237.929 149.892 239.549 147.027 238.878ZM169.942 244.247C166.505 243.441 164.75 240.613 165.556 237.176C166.361 233.739 169.189 231.984 172.626 232.789C176.064 233.595 177.818 236.423 177.013 239.86C176.208 243.298 172.806 244.918 169.942 244.247ZM192.857 249.616C189.42 248.81 187.665 245.982 188.47 242.545C189.276 239.108 192.104 237.353 195.541 238.158C198.978 238.964 200.733 241.792 199.928 245.229C199.122 248.666 195.721 250.287 192.857 249.616ZM169.582 219.99L185.823 150.673C186.396 150.807 186.53 150.234 187.103 150.369C218.529 142.624 247.496 171.166 239.98 203.246C237.027 215.85 229.321 225.526 218.849 231.533L169.582 219.99Z" fill="#F3F3F1"/>
</g>
<g filter="url(#filter1_f_8_7)">
<path d="M91.8133 41.848L91.3719 41.7384L91.9861 39.2669C94.4773 38.2928 96.5037 36.1723 97.2056 33.3478C98.6751 27.434 93.6156 21.7721 87.5729 22.7072C88.1009 21.7138 87.9891 20.6551 87.3482 19.8398L87.3017 18.1414L89.0237 19.1316L89.901 15.601L87.9158 15.67L88.906 13.948L85.3754 13.0706L85.4444 15.0558L83.7224 14.0656L82.845 17.5963L84.8302 17.5273L83.9941 19.0064C83.1344 19.4488 82.4519 20.31 82.4534 21.435C77.5512 17.7803 70.43 20.4154 68.9605 26.3292C68.2587 29.1537 69.0568 31.976 70.8023 34.003L70.1882 36.4744L69.7468 36.3647C69.0407 36.1893 68.2693 36.6536 68.0938 37.3597C67.9184 38.0658 68.3827 38.8372 69.0888 39.0127L91.1553 44.496C91.8614 44.6715 92.6328 44.2071 92.8083 43.501C92.9837 42.7949 92.5194 42.0235 91.8133 41.848ZM73.9381 36.4691C73.4085 36.3375 73.1432 35.8967 73.2748 35.3671C73.4064 34.8375 73.8472 34.5722 74.3768 34.7038C74.9064 34.8354 75.1717 35.2761 75.0401 35.8057C74.9085 36.3353 74.3794 36.5787 73.9381 36.4691ZM77.4688 37.3464C76.9392 37.2148 76.6738 36.774 76.8054 36.2444C76.937 35.7148 77.3778 35.4495 77.9074 35.5811C78.437 35.7127 78.7023 36.1535 78.5707 36.6831C78.4391 37.2127 77.9101 37.4561 77.4688 37.3464ZM79.2287 34.0351L71.6379 32.1488C70.621 30.5841 70.2433 28.7097 70.7258 26.7678C71.9541 21.8249 77.9514 19.9414 81.7281 23.2228C81.8163 23.2447 81.7944 23.333 81.8827 23.3549L79.2287 34.0351ZM86.5923 15.716C87.1219 15.8476 87.3873 16.2884 87.2557 16.8179C87.1241 17.3475 86.6833 17.6129 86.1537 17.4813C85.6241 17.3497 85.3588 16.9089 85.4904 16.3793C85.622 15.8497 86.0628 15.5844 86.5923 15.716ZM84.728 23.2185C85.2576 23.3501 85.5229 23.7909 85.3914 24.3205C85.2598 24.8501 84.819 25.1155 84.2894 24.9839C83.7598 24.8523 83.4944 24.4115 83.626 23.8819C83.7576 23.3523 84.1984 23.0869 84.728 23.2185ZM83.1927 29.3971C83.7223 29.5287 83.9876 29.9695 83.856 30.4991C83.7244 31.0287 83.2836 31.2941 82.754 31.1625C82.2244 31.0309 81.9591 30.5901 82.0907 30.0605C82.2223 29.5309 82.6631 29.2655 83.1927 29.3971ZM80.9994 38.2237C80.4698 38.0921 80.2045 37.6513 80.3361 37.1217C80.4677 36.5921 80.9085 36.3268 81.438 36.4584C81.9676 36.59 82.233 37.0308 82.1014 37.5604C81.9698 38.09 81.4407 38.3334 80.9994 38.2237ZM84.53 39.1011C84.0004 38.9695 83.7351 38.5287 83.8667 37.9991C83.9983 37.4695 84.4391 37.2041 84.9687 37.3357C85.4983 37.4673 85.7636 37.9081 85.632 38.4377C85.5004 38.9673 84.9713 39.2107 84.53 39.1011ZM88.0606 39.9784C87.531 39.8468 87.2657 39.406 87.3973 38.8764C87.5289 38.3468 87.9697 38.0815 88.4993 38.2131C89.0289 38.3447 89.2942 38.7855 89.1626 39.3151C89.031 39.8446 88.502 40.088 88.0606 39.9784ZM84.5247 35.3511L87.1786 24.6709C87.2669 24.6929 87.2888 24.6046 87.3771 24.6265C92.2504 23.4946 96.6685 27.9662 95.4402 32.9091C94.9577 34.851 93.7466 36.3306 92.1155 37.2373L84.5247 35.3511Z" fill="#F3F3F1"/>
</g>
<g filter="url(#filter2_f_8_7)">
<path d="M91.7323 41.7342L91.2925 41.6249L91.9044 39.1623C94.3868 38.1917 96.4059 36.0788 97.1053 33.2643C98.5695 27.3717 93.5281 21.73 87.507 22.6617C88.0331 21.6719 87.9217 20.617 87.2831 19.8047L87.2368 18.1123L88.9526 19.099L89.8268 15.5809L87.8487 15.6497L88.8354 13.9339L85.3174 13.0597L85.3861 15.0378L83.6703 14.0511L82.7961 17.5691L84.7742 17.5004L83.941 18.9742C83.0844 19.415 82.4043 20.2732 82.4059 21.3942C77.5212 17.7525 70.4254 20.3781 68.9612 26.2708C68.2618 29.0852 69.0571 31.8975 70.7964 33.9172L70.1844 36.3798L69.7447 36.2705C69.0411 36.0957 68.2724 36.5583 68.0976 37.2619C67.9228 37.9655 68.3854 38.7342 69.089 38.909L91.0766 44.3727C91.7802 44.5476 92.5488 44.0849 92.7237 43.3813C92.8985 42.6777 92.4359 41.9091 91.7323 41.7342ZM73.921 36.3745C73.3933 36.2433 73.1289 35.8041 73.26 35.2764C73.3912 34.7487 73.8304 34.4843 74.3581 34.6155C74.8858 34.7466 75.1502 35.1858 75.019 35.7135C74.8879 36.2412 74.3607 36.4837 73.921 36.3745ZM77.439 37.2487C76.9113 37.1175 76.6469 36.6783 76.778 36.1506C76.9092 35.6229 77.3484 35.3585 77.8761 35.4897C78.4038 35.6208 78.6682 36.06 78.537 36.5877C78.4059 37.1154 77.8787 37.3579 77.439 37.2487ZM79.1927 33.9492L71.629 32.0697C70.6157 30.5106 70.2394 28.6428 70.7202 26.7079C71.944 21.7827 77.9199 19.9059 81.6831 23.1756C81.771 23.1974 81.7492 23.2854 81.8371 23.3072L79.1927 33.9492ZM86.53 15.6955C87.0577 15.8267 87.3221 16.2659 87.1909 16.7936C87.0598 17.3213 86.6206 17.5857 86.0929 17.4545C85.5652 17.3234 85.3008 16.8842 85.4319 16.3565C85.5631 15.8288 86.0023 15.5644 86.53 15.6955ZM84.6723 23.1713C85.2 23.3024 85.4644 23.7417 85.3333 24.2694C85.2022 24.7971 84.7629 25.0614 84.2352 24.9303C83.7075 24.7992 83.4431 24.36 83.5743 23.8323C83.7054 23.3046 84.1446 23.0402 84.6723 23.1713ZM83.1425 29.3278C83.6702 29.459 83.9346 29.8982 83.8034 30.4259C83.6723 30.9536 83.2331 31.218 82.7054 31.0868C82.1777 30.9557 81.9133 30.5165 82.0444 29.9888C82.1756 29.4611 82.6148 29.1967 83.1425 29.3278ZM80.957 38.1229C80.4293 37.9917 80.1649 37.5525 80.2961 37.0248C80.4272 36.4971 80.8664 36.2327 81.3941 36.3639C81.9218 36.495 82.1862 36.9342 82.0551 37.4619C81.9239 37.9896 81.3968 38.2321 80.957 38.1229ZM84.475 38.9971C83.9473 38.8659 83.6829 38.4267 83.8141 37.899C83.9452 37.3713 84.3844 37.1069 84.9121 37.238C85.4398 37.3692 85.7042 37.8084 85.5731 38.3361C85.4419 38.8638 84.9148 39.1063 84.475 38.9971ZM87.993 39.8712C87.4653 39.7401 87.201 39.3009 87.3321 38.7732C87.4632 38.2455 87.9024 37.9811 88.4301 38.1122C88.9578 38.2434 89.2222 38.6826 89.0911 39.2103C88.96 39.738 88.4328 39.9805 87.993 39.8712ZM84.4697 35.2605L87.1141 24.6185C87.2021 24.6404 87.2239 24.5524 87.3119 24.5743C92.1678 23.4464 96.5701 27.902 95.3463 32.8273C94.8655 34.7622 93.6587 36.2365 92.0334 37.14L84.4697 35.2605Z" fill="#F3F3F1"/>
</g>
<g filter="url(#filter3_f_8_7)">
<path d="M233.258 342.418L232.817 342.316L233.387 339.843C235.853 338.831 237.837 336.685 238.489 333.86C239.855 327.943 234.72 322.386 228.716 323.418C229.225 322.42 229.096 321.367 228.444 320.565L228.37 318.874L230.102 319.832L230.917 316.3L228.94 316.402L229.898 314.67L226.366 313.854L226.468 315.831L224.736 314.873L223.92 318.405L225.897 318.303L225.089 319.791C224.24 320.246 223.574 321.115 223.594 322.236C218.649 318.676 211.598 321.42 210.232 327.336C209.58 330.162 210.422 332.96 212.195 334.951L211.624 337.423L211.182 337.321C210.476 337.158 209.715 337.634 209.552 338.34C209.389 339.046 209.864 339.807 210.571 339.97L232.646 345.067C233.353 345.23 234.114 344.754 234.277 344.048C234.44 343.342 233.964 342.581 233.258 342.418ZM215.36 337.356C214.83 337.233 214.558 336.798 214.681 336.269C214.803 335.739 215.238 335.467 215.768 335.589C216.297 335.712 216.569 336.147 216.447 336.676C216.325 337.206 215.801 337.457 215.36 337.356ZM218.892 338.171C218.362 338.049 218.091 337.614 218.213 337.084C218.335 336.554 218.77 336.283 219.3 336.405C219.83 336.527 220.101 336.962 219.979 337.492C219.857 338.022 219.334 338.273 218.892 338.171ZM220.591 334.843L212.997 333.09C211.957 331.548 211.55 329.686 211.999 327.744C213.14 322.799 219.084 320.823 222.901 324.029C222.989 324.049 222.969 324.138 223.057 324.158L220.591 334.843ZM227.623 316.469C228.152 316.592 228.424 317.026 228.302 317.556C228.179 318.086 227.745 318.358 227.215 318.235C226.685 318.113 226.413 317.678 226.536 317.149C226.658 316.619 227.093 316.347 227.623 316.469ZM225.89 323.975C226.42 324.097 226.691 324.532 226.569 325.062C226.447 325.592 226.012 325.863 225.482 325.741C224.952 325.619 224.681 325.184 224.803 324.654C224.925 324.124 225.36 323.853 225.89 323.975ZM224.463 330.156C224.993 330.279 225.264 330.713 225.142 331.243C225.02 331.773 224.585 332.045 224.055 331.922C223.525 331.8 223.254 331.365 223.376 330.835C223.498 330.306 223.933 330.034 224.463 330.156ZM222.424 338.986C221.894 338.864 221.623 338.429 221.745 337.9C221.867 337.37 222.302 337.098 222.832 337.22C223.362 337.343 223.633 337.777 223.511 338.307C223.389 338.837 222.866 339.088 222.424 338.986ZM225.956 339.802C225.426 339.68 225.155 339.245 225.277 338.715C225.399 338.185 225.834 337.914 226.364 338.036C226.894 338.158 227.165 338.593 227.043 339.123C226.921 339.653 226.398 339.904 225.956 339.802ZM229.488 340.617C228.959 340.495 228.687 340.06 228.809 339.53C228.931 339.001 229.366 338.729 229.896 338.851C230.426 338.974 230.698 339.408 230.575 339.938C230.453 340.468 229.93 340.719 229.488 340.617ZM225.889 336.066L228.355 325.381C228.444 325.402 228.464 325.313 228.552 325.334C233.389 324.125 237.865 328.507 236.723 333.452C236.275 335.394 235.093 336.889 233.483 337.819L225.889 336.066Z" fill="#F3F3F1"/>
</g>
</g>
<defs>
<filter id="filter0_f_8_7" x="59.2559" y="71.7908" width="197.666" height="210.994" filterUnits="userSpaceOnUse" color-interpolation-filters="sRGB">
<feFlood flood-opacity="0" result="BackgroundImageFix"/>
<feBlend mode="normal" in="SourceGraphic" in2="BackgroundImageFix" result="shape"/>
<feGaussianBlur stdDeviation="2" result="effect1_foregroundBlur_8_7"/>
</filter>
<filter id="filter1_f_8_7" x="64.0566" y="9.07056" width="37.4053" height="39.4626" filterUnits="userSpaceOnUse" color-interpolation-filters="sRGB">
<feFlood flood-opacity="0" result="BackgroundImageFix"/>
<feBlend mode="normal" in="SourceGraphic" in2="BackgroundImageFix" result="shape"/>
<feGaussianBlur stdDeviation="2" result="effect1_foregroundBlur_8_7"/>
</filter>
<filter id="filter2_f_8_7" x="64.0605" y="9.05969" width="37.3008" height="39.3501" filterUnits="userSpaceOnUse" color-interpolation-filters="sRGB">
<feFlood flood-opacity="0" result="BackgroundImageFix"/>
<feBlend mode="normal" in="SourceGraphic" in2="BackgroundImageFix" result="shape"/>
<feGaussianBlur stdDeviation="2" result="effect1_foregroundBlur_8_7"/>
</filter>
<filter id="filter3_f_8_7" x="205.52" y="309.854" width="37.1914" height="39.2451" filterUnits="userSpaceOnUse" color-interpolation-filters="sRGB">
<feFlood flood-opacity="0" result="BackgroundImageFix"/>
<feBlend mode="normal" in="SourceGraphic" in2="BackgroundImageFix" result="shape"/>
<feGaussianBlur stdDeviation="2" result="effect1_foregroundBlur_8_7"/>
</filter>
</defs>
</svg>
