<svg width="398" height="398" viewBox="0 0 398 398" fill="none" xmlns="http://www.w3.org/2000/svg">
<path d="M344.318 145.652C373.596 226.094 332.12 315.039 251.679 344.318C171.237 373.596 82.2915 332.12 53.0131 251.679C23.7348 171.237 65.2108 82.2915 145.652 53.0131C226.094 23.7348 315.039 65.2108 344.318 145.652Z" fill="#F28164"/>
<path d="M156.14 212.524C156.037 212.123 156.278 211.714 156.68 211.61L172.369 207.571C172.77 207.467 173.179 207.709 173.282 208.11L177.284 223.651C177.387 224.052 177.145 224.461 176.744 224.564L161.055 228.604C160.654 228.707 160.245 228.466 160.141 228.064L156.14 212.524Z" fill="#FFBCAB"/>
<path d="M225.186 194.745C225.083 194.344 225.324 193.935 225.726 193.832L241.415 189.792C241.816 189.689 242.225 189.93 242.328 190.331L246.33 205.872C246.433 206.273 246.191 206.682 245.79 206.785L230.101 210.825C229.7 210.928 229.291 210.687 229.187 210.286L225.186 194.745Z" fill="#FFBCAB"/>
<path d="M177.66 225.102C177.557 224.701 177.798 224.292 178.2 224.189L228.649 211.199C229.051 211.095 229.46 211.337 229.563 211.738L233.564 227.278C233.668 227.68 233.426 228.089 233.025 228.192L182.575 241.182C182.174 241.285 181.765 241.044 181.661 240.643L177.66 225.102Z" fill="#FFBCAB"/>
<path d="M164.331 173.338C164.228 172.937 164.47 172.528 164.871 172.425L180.56 168.385C180.961 168.282 181.37 168.523 181.474 168.925L185.475 184.465C185.578 184.866 185.337 185.275 184.935 185.379L169.246 189.418C168.845 189.522 168.436 189.28 168.333 188.879L164.331 173.338Z" fill="#FFBCAB"/>
<path d="M199.093 164.389C198.99 163.987 199.231 163.578 199.633 163.475L215.322 159.435C215.723 159.332 216.132 159.574 216.235 159.975L220.237 175.515C220.34 175.916 220.098 176.325 219.697 176.429L204.008 180.468C203.607 180.572 203.198 180.33 203.094 179.929L199.093 164.389Z" fill="#FFBCAB"/>
</svg>
