<svg width="398" height="398" viewBox="0 0 398 398" fill="none" xmlns="http://www.w3.org/2000/svg">
<path d="M344.318 145.652C373.596 226.094 332.12 315.039 251.679 344.318C171.237 373.596 82.2915 332.12 53.0131 251.679C23.7348 171.237 65.2108 82.2915 145.652 53.0131C226.094 23.7348 315.039 65.2108 344.318 145.652Z" fill="#F588B9"/>
<path d="M151.285 215.913L170.163 195.087C170.222 195.023 170.24 194.931 170.21 194.85L165.865 182.908C165.805 182.742 165.589 182.702 165.474 182.836L135.056 218.334C135.001 218.398 134.985 218.487 135.014 218.567L137.935 226.596C137.966 226.681 138.043 226.74 138.132 226.747L182.877 230.628C183.046 230.642 183.172 230.475 183.114 230.315L178.762 218.355C178.731 218.269 178.652 218.21 178.562 218.203L151.439 216.302C151.247 216.289 151.155 216.057 151.285 215.913Z" fill="#FFEDF5"/>
<path d="M151.285 215.913L170.163 195.087C170.222 195.023 170.24 194.931 170.21 194.85L165.865 182.908C165.805 182.742 165.589 182.702 165.474 182.836L135.056 218.334C135.001 218.398 134.985 218.487 135.014 218.567L137.935 226.596C137.966 226.681 138.043 226.74 138.132 226.747L182.877 230.628C183.046 230.642 183.172 230.475 183.114 230.315L178.762 218.355C178.731 218.269 178.652 218.21 178.562 218.203L151.439 216.302C151.247 216.289 151.155 216.057 151.285 215.913Z" fill="#FFEDF5"/>
<path d="M151.285 215.913L170.163 195.087C170.222 195.023 170.24 194.931 170.21 194.85L165.865 182.908C165.805 182.742 165.589 182.702 165.474 182.836L135.056 218.334C135.001 218.398 134.985 218.487 135.014 218.567L137.935 226.596C137.966 226.681 138.043 226.74 138.132 226.747L182.877 230.628C183.046 230.642 183.172 230.475 183.114 230.315L178.762 218.355C178.731 218.269 178.652 218.21 178.562 218.203L151.439 216.302C151.247 216.289 151.155 216.057 151.285 215.913Z" fill="#FFEDF5"/>
<path d="M244.963 181.149L217.225 177.623C217.139 177.612 217.067 177.554 217.037 177.472L212.693 165.531C212.632 165.364 212.771 165.193 212.944 165.22L258.883 172.382C258.966 172.395 259.036 172.452 259.065 172.532L261.986 180.561C262.017 180.646 261.996 180.741 261.933 180.805L230.321 213.021C230.202 213.143 229.999 213.098 229.941 212.938L225.589 200.978C225.558 200.892 225.58 200.795 225.645 200.731L245.096 181.547C245.234 181.411 245.155 181.173 244.963 181.149Z" fill="#FFEDF5"/>
<path d="M244.963 181.149L217.225 177.623C217.139 177.612 217.067 177.554 217.037 177.472L212.693 165.531C212.632 165.364 212.771 165.193 212.944 165.22L258.883 172.382C258.966 172.395 259.036 172.452 259.065 172.532L261.986 180.561C262.017 180.646 261.996 180.741 261.933 180.805L230.321 213.021C230.202 213.143 229.999 213.098 229.941 212.938L225.589 200.978C225.558 200.892 225.58 200.795 225.645 200.731L245.096 181.547C245.234 181.411 245.155 181.173 244.963 181.149Z" fill="#FFEDF5"/>
<path d="M244.963 181.149L217.225 177.623C217.139 177.612 217.067 177.554 217.037 177.472L212.693 165.531C212.632 165.364 212.771 165.193 212.944 165.22L258.883 172.382C258.966 172.395 259.036 172.452 259.065 172.532L261.986 180.561C262.017 180.646 261.996 180.741 261.933 180.805L230.321 213.021C230.202 213.143 229.999 213.098 229.941 212.938L225.589 200.978C225.558 200.892 225.58 200.795 225.645 200.731L245.096 181.547C245.234 181.411 245.155 181.173 244.963 181.149Z" fill="#FFEDF5"/>
<path d="M203.043 163.041L191.181 167.443C191.09 167.476 191.03 167.564 191.03 167.662L191.186 236.794C191.186 236.955 191.346 237.068 191.496 237.012L203.358 232.61C203.449 232.576 203.509 232.488 203.509 232.391L203.353 163.259C203.353 163.097 203.193 162.985 203.043 163.041Z" fill="#FFEDF5"/>
</svg>
