<svg width="398" height="398" viewBox="0 0 398 398" fill="none" xmlns="http://www.w3.org/2000/svg">
<path d="M344.318 145.652C373.596 226.094 332.12 315.039 251.679 344.318C171.237 373.596 82.2915 332.12 53.0131 251.679C23.7348 171.237 65.2108 82.2915 145.652 53.0131C226.094 23.7348 315.039 65.2108 344.318 145.652Z" fill="#A2B87E"/>
<path d="M165.632 250.897C163.644 249.992 162.836 247.595 163.869 245.671L181.077 213.635L144.468 219.374C142.319 219.71 140.33 218.168 140.122 216.002L138.181 195.803C137.97 193.614 139.668 191.708 141.867 191.665L178.74 190.937L155.086 162.642C153.675 160.954 153.998 158.423 155.788 157.144L172.301 145.35C174.071 144.086 176.54 144.574 177.697 146.416L197.397 177.801L210.271 143.791C211.044 141.749 213.383 140.785 215.37 141.69L233.923 150.14C235.914 151.047 236.721 153.45 235.681 155.375L218.391 187.363L255 181.624C257.149 181.287 259.138 182.83 259.346 184.995L261.288 205.199C261.498 207.387 259.803 209.292 257.606 209.337L220.824 210.104L244.389 238.356C245.797 240.044 245.472 242.573 243.683 243.851L227.167 255.647C225.397 256.912 222.928 256.424 221.771 254.582L202.071 223.196L189.288 257.237C188.518 259.285 186.176 260.254 184.185 259.347L165.632 250.897Z" fill="#ECFFCE"/>
</svg>
