<svg width="398" height="398" viewBox="0 0 398 398" fill="none" xmlns="http://www.w3.org/2000/svg">
<path d="M344.318 145.652C373.596 226.094 332.12 315.039 251.679 344.318C171.237 373.596 82.2915 332.12 53.0131 251.679C23.7348 171.237 65.2108 82.2915 145.652 53.0131C226.094 23.7348 315.039 65.2108 344.318 145.652Z" fill="#CAC48E"/>
<path d="M141.985 172.059C149.01 157.439 166.512 151.31 181.074 158.346L243.353 188.437C257.922 195.476 264.055 213.038 257.026 227.664C250.002 242.284 232.5 248.413 217.938 241.377L155.659 211.286C141.09 204.247 134.957 186.686 141.985 172.059Z" stroke="#FFFAC2" stroke-width="9.13333"/>
<rect x="220.168" y="187.982" width="40" height="40" rx="20" transform="rotate(25 220.168 187.982)" fill="#FFFAC2"/>
</svg>
